<svg xmlns="http://www.w3.org/2000/svg" width="238" height="322" viewBox="0 0 238 322" version="1.1"><path d="M 72.500 17.076 C 58.242 18.260, 47.232 20.480, 44.829 22.654 C 43.168 24.158, 43.002 25.254, 43.570 31.014 C 44.128 36.679, 43.904 38.268, 42.025 41.951 C 39.628 46.649, 39.842 51.794, 42.526 54.022 C 44.864 55.962, 44.267 59.900, 41.190 62.827 C 39.644 64.297, 35.754 67.525, 32.545 70 C 25.529 75.411, 19.549 83.049, 16.928 89.947 C 15.079 94.815, 15 98.501, 15 180.422 C 15 260.911, 15.107 266.166, 16.862 271.806 C 20.679 284.069, 32.274 296.198, 43.373 299.538 C 65.975 306.340, 126.605 308.788, 164 304.409 C 194.068 300.888, 200.375 298.795, 210.013 289.134 C 215.986 283.147, 220.322 275.271, 222.021 267.322 C 222.695 264.168, 222.956 233.269, 222.776 177.978 L 222.500 93.456 219.279 86.915 C 216.088 80.433, 209.835 73.681, 198.708 64.700 C 194.802 61.548, 194 60.334, 194 57.573 C 194 55.742, 194.675 53.685, 195.500 53 C 197.593 51.263, 197.370 45.771, 195.023 41.268 C 193.348 38.055, 193.181 36.635, 193.933 31.987 C 195.548 22.005, 193.396 20.448, 174.500 17.925 C 164.098 16.537, 86.749 15.893, 72.500 17.076" stroke="none" fill="#eb63a3" fill-rule="evenodd"/></svg>