<?xml version="1.0" standalone="no"?>
<!DOCTYPE svg PUBLIC "-//W3C//DTD SVG 20010904//EN"
 "http://www.w3.org/TR/2001/REC-SVG-20010904/DTD/svg10.dtd">
<svg version="1.0" xmlns="http://www.w3.org/2000/svg"
 width="1288.000000pt" height="1288.000000pt" viewBox="0 0 1288.000000 1288.000000"
 preserveAspectRatio="xMidYMid meet">
<metadata>
Created by potrace 1.14, written by Peter Selinger 2001-2017
</metadata>
<g transform="translate(0.000000,1288.000000) scale(0.100000,-0.100000)"
fill="#000000" stroke="none">
<path d="M5717 12224 c-1 -1 -209 -5 -462 -8 -253 -4 -489 -9 -525 -10 -74 -4
-230 -16 -275 -20 -16 -2 -61 -7 -100 -11 -38 -3 -82 -8 -96 -11 -25 -4 -74
-11 -139 -19 -14 -2 -49 -6 -78 -9 -29 -3 -57 -8 -63 -11 -5 -4 -26 -8 -47
-11 -20 -2 -44 -5 -52 -7 -8 -2 -42 -9 -75 -16 -33 -7 -84 -20 -114 -28 -29
-8 -59 -16 -65 -18 -14 -3 -61 -22 -103 -42 -49 -23 -91 -68 -102 -111 -10
-36 -8 -170 3 -257 10 -77 8 -240 -4 -284 -6 -25 -31 -88 -54 -140 -49 -109
-64 -163 -70 -239 -7 -101 22 -191 81 -250 18 -18 39 -45 46 -60 21 -42 15
-120 -15 -182 -30 -64 -63 -101 -173 -193 -44 -37 -87 -74 -95 -81 -8 -7 -72
-58 -141 -114 -153 -121 -298 -263 -389 -382 -19 -24 -43 -53 -52 -64 -10 -11
-20 -28 -24 -38 -3 -10 -10 -18 -15 -18 -5 0 -9 -5 -9 -11 0 -6 -12 -29 -27
-52 -55 -84 -90 -152 -119 -232 -9 -27 -22 -56 -27 -62 -5 -7 -7 -13 -4 -13 3
0 1 -15 -4 -32 -28 -97 -39 -371 -43 -1076 -2 -282 -6 -515 -9 -518 -3 -3 -3
-12 -1 -19 9 -22 10 -116 2 -121 -4 -3 -3 -15 1 -27 11 -28 11 -38 0 -59 -5
-9 -5 -19 -1 -22 9 -6 7 -59 -3 -75 -3 -6 -2 -11 2 -11 10 0 9 -53 -1 -69 -4
-5 -3 -12 2 -15 4 -2 7 -22 6 -43 -1 -21 -3 -51 -4 -68 -1 -16 1 -40 3 -52 3
-13 3 -23 -1 -23 -9 0 -8 -42 1 -57 4 -7 3 -14 -3 -18 -6 -4 -7 -12 -3 -18 10
-16 10 -47 1 -75 -5 -13 -3 -32 2 -43 8 -13 7 -25 0 -40 -8 -15 -8 -24 0 -34
8 -9 8 -15 0 -20 -7 -4 -7 -12 0 -26 8 -13 7 -25 0 -40 -8 -15 -8 -24 0 -34 8
-9 8 -15 0 -20 -7 -4 -7 -12 0 -26 6 -11 8 -24 5 -30 -10 -16 -13 -59 -5 -64
4 -3 4 -20 0 -39 -4 -19 -4 -40 0 -46 4 -7 4 -26 0 -41 -5 -16 -5 -31 -1 -34
4 -2 5 -24 1 -49 -4 -24 -3 -52 2 -60 5 -10 4 -24 -2 -37 -8 -15 -8 -24 0 -34
8 -9 8 -15 0 -20 -7 -4 -7 -12 0 -26 8 -13 7 -25 0 -40 -8 -15 -8 -24 0 -34 8
-9 8 -15 0 -20 -7 -4 -7 -12 0 -26 8 -13 7 -25 0 -40 -8 -14 -8 -24 -1 -32 6
-8 6 -18 1 -27 -5 -9 -5 -19 1 -27 7 -8 7 -19 -1 -33 -8 -14 -8 -25 -1 -33 6
-8 6 -18 1 -27 -5 -9 -5 -19 1 -27 7 -8 7 -19 -1 -33 -8 -14 -8 -25 -1 -33 6
-8 6 -18 1 -27 -5 -9 -5 -19 1 -27 6 -7 8 -17 4 -23 -10 -17 -13 -60 -5 -65 4
-3 4 -20 0 -39 -4 -19 -4 -40 0 -46 4 -7 4 -26 0 -41 -5 -16 -5 -31 -1 -34 4
-2 5 -24 1 -49 -4 -24 -3 -52 2 -60 6 -11 5 -16 -3 -16 -9 0 -9 -3 0 -14 8
-10 9 -16 1 -21 -7 -4 -7 -12 0 -26 8 -13 7 -25 0 -40 -8 -15 -8 -24 0 -34 8
-9 8 -15 0 -20 -7 -4 -7 -12 0 -26 8 -13 7 -25 0 -40 -8 -15 -8 -24 0 -34 8
-9 8 -15 0 -20 -7 -4 -7 -12 0 -26 8 -14 7 -19 -1 -19 -9 0 -9 -3 0 -14 8 -10
9 -16 1 -21 -6 -4 -7 -13 -2 -23 10 -20 10 -33 -2 -50 -4 -7 -3 -19 4 -27 7
-9 8 -15 0 -20 -7 -4 -7 -12 0 -26 8 -13 7 -25 0 -39 -6 -11 -8 -25 -4 -32 8
-13 12 -158 4 -158 -5 0 -5 -48 0 -60 6 -14 5 -37 -3 -54 -7 -13 -6 -16 3 -11
9 6 9 3 1 -13 -6 -12 -7 -23 -3 -26 9 -5 7 -71 -3 -86 -3 -6 -2 -10 3 -10 12
0 10 -43 -3 -52 -6 -5 -5 -8 3 -8 9 0 10 -5 3 -19 -6 -10 -7 -21 -4 -25 9 -9
10 -87 1 -92 -4 -3 -5 -11 -1 -19 8 -22 9 -156 2 -161 -4 -2 -4 -19 0 -36 8
-39 6 -101 -3 -117 -4 -6 -4 -11 1 -11 4 0 9 -172 9 -383 2 -538 13 -953 30
-1092 10 -87 38 -199 66 -265 6 -14 14 -34 18 -45 16 -42 75 -160 82 -163 5
-2 8 -9 8 -14 0 -13 61 -112 72 -116 5 -2 8 -8 8 -14 0 -13 123 -171 171 -220
20 -20 35 -39 32 -42 -2 -2 4 -7 15 -10 10 -4 25 -18 32 -31 7 -14 17 -25 20
-25 4 0 27 -18 51 -41 89 -82 287 -219 317 -219 6 0 12 -3 12 -8 0 -7 14 -14
120 -57 58 -23 114 -40 160 -49 8 -2 22 -6 30 -9 14 -5 76 -20 140 -32 60 -12
127 -26 150 -30 14 -3 36 -7 50 -9 25 -5 82 -14 132 -21 15 -2 53 -9 85 -14
32 -6 83 -13 113 -16 55 -5 87 -9 171 -19 101 -12 127 -15 181 -20 31 -4 87
-8 125 -11 37 -3 84 -7 103 -10 19 -2 67 -7 105 -10 184 -13 215 -16 285 -20
239 -15 424 -22 740 -31 389 -10 910 -10 910 0 0 5 6 3 13 -3 8 -6 16 -9 18
-6 3 2 106 7 229 11 124 3 243 7 265 8 22 0 46 5 53 9 7 5 12 4 12 -3 0 -6 4
-9 8 -6 4 3 62 8 128 11 65 3 139 8 164 10 25 2 83 7 130 10 47 4 99 8 115 10
17 1 64 6 105 10 81 7 122 11 185 20 22 2 63 7 90 10 28 4 66 8 85 11 19 2 55
7 80 9 25 3 61 7 80 10 19 2 47 5 63 7 15 1 27 5 27 8 0 3 17 5 38 6 35 1 96
8 152 18 14 3 41 7 60 10 19 3 60 10 90 16 30 6 70 13 89 16 34 6 40 7 101 22
19 5 38 9 43 10 88 17 243 62 307 89 76 33 206 98 218 110 7 7 17 13 21 13 4
0 17 8 29 18 11 9 30 24 43 32 12 8 35 27 51 42 16 16 32 28 36 28 4 0 36 30
72 65 36 36 68 65 73 65 4 0 7 4 7 10 0 5 15 24 33 42 27 27 92 106 135 163
38 51 164 265 168 285 0 3 9 23 19 45 10 22 19 42 20 45 2 8 15 42 26 68 18
46 59 202 64 244 2 24 7 128 10 233 4 104 9 193 11 197 3 4 0 8 -6 8 -6 0 -8
5 -4 12 5 7 9 134 11 283 5 416 4 3184 -2 4385 -3 591 -5 1082 -5 1090 0 8 2
44 3 80 1 36 -1 73 -5 82 -5 9 -5 19 0 22 9 5 7 110 -3 126 -3 5 -3 10 2 10 6
0 8 140 2 160 -1 3 0 10 1 15 4 22 2 136 -3 141 -3 4 -2 16 3 29 5 13 6 26 2
29 -3 4 -7 13 -8 22 -2 14 -164 344 -174 354 -3 3 -18 25 -34 50 -36 56 -117
160 -171 219 -106 118 -319 320 -420 401 -22 17 -42 35 -45 39 -3 4 -18 17
-35 29 -114 87 -206 176 -231 223 -39 75 -21 235 31 292 46 49 59 93 58 199
-1 54 -5 103 -9 110 -5 7 -10 22 -11 33 -4 24 -33 94 -76 185 -28 59 -31 74
-31 160 0 52 3 113 7 135 13 67 18 116 18 195 -1 90 -1 94 -28 145 -20 38 -83
104 -83 88 0 -5 -4 -3 -8 3 -15 22 -185 81 -261 90 -19 3 -37 6 -40 8 -11 7
-94 20 -128 20 -18 0 -33 3 -33 7 0 3 -6 6 -12 7 -17 1 -104 12 -148 18 -128
18 -432 35 -652 38 -49 0 -88 4 -88 9 0 4 -8 4 -17 -1 -10 -4 -29 -7 -43 -6
-75 9 -2185 35 -2193 28z"/>
</g>
</svg>
