<?xml version="1.0" standalone="no"?>
<!DOCTYPE svg PUBLIC "-//W3C//DTD SVG 20010904//EN"
 "http://www.w3.org/TR/2001/REC-SVG-20010904/DTD/svg10.dtd">
<svg version="1.0" xmlns="http://www.w3.org/2000/svg"
 width="322.000000pt" height="322.000000pt" viewBox="0 0 322.000000 322.000000"
 preserveAspectRatio="xMidYMid meet">
<metadata>
Created by potrace 1.14, written by Peter Selinger 2001-2017
</metadata>
<g transform="translate(0.000000,322.000000) scale(0.100000,-0.100000)"
fill="#000000" stroke="none">
<path d="M1278 3055 c-2 -2 -46 -6 -98 -9 -92 -6 -201 -19 -248 -30 -71 -16
-76 -25 -73 -129 1 -52 -2 -74 -15 -88 -21 -23 -21 -85 0 -108 16 -18 21 -68
8 -86 -4 -6 -37 -34 -73 -62 -91 -72 -146 -134 -177 -201 l-27 -57 -2 -850
c-2 -546 1 -866 8 -895 32 -145 150 -275 285 -314 49 -15 132 -30 209 -40 22
-3 58 -8 80 -11 108 -14 583 -20 756 -10 92 5 224 20 284 31 11 2 43 7 70 10
166 21 302 133 357 292 l22 67 2 835 c1 903 2 884 -53 979 -14 24 -47 64 -73
90 -48 47 -59 56 -122 103 -47 36 -58 78 -29 114 26 33 26 64 1 114 -17 32
-19 53 -16 113 5 69 3 75 -17 85 -44 22 -99 32 -277 48 -56 5 -777 13 -782 9z"/>
</g>
</svg>
