<?xml version="1.0" standalone="no"?>
<!DOCTYPE svg PUBLIC "-//W3C//DTD SVG 20010904//EN"
 "http://www.w3.org/TR/2001/REC-SVG-20010904/DTD/svg10.dtd">
<svg version="1.0" xmlns="http://www.w3.org/2000/svg"
 width="256.000000pt" height="256.000000pt" viewBox="0 0 256.000000 256.000000"
 preserveAspectRatio="xMidYMid meet">
<metadata>
Created by potrace 1.14, written by Peter Selinger 2001-2017
</metadata>
<g transform="translate(0.000000,256.000000) scale(0.100000,-0.100000)"
fill="#000000" stroke="none">
<path d="M1015 2369 c-4 -6 -14 -8 -22 -5 -8 3 -20 3 -26 -1 -16 -10 -57 -10
-57 0 0 4 -10 2 -22 -4 -13 -7 -25 -11 -28 -10 -3 2 -29 0 -59 -4 -39 -5 -60
-14 -77 -32 -21 -23 -22 -27 -9 -47 8 -13 12 -26 8 -30 -4 -4 -8 -19 -9 -33 0
-14 -8 -30 -17 -34 -14 -8 -14 -15 3 -64 12 -36 15 -53 7 -49 -9 5 -9 4 0 -6
8 -9 6 -17 -8 -31 -11 -11 -25 -17 -32 -13 -7 4 -9 4 -5 -1 10 -11 -20 -38
-33 -29 -8 4 -9 3 -5 -4 3 -6 -3 -16 -14 -22 -11 -6 -17 -16 -14 -22 5 -8 1
-9 -10 -5 -9 4 -15 3 -12 -2 7 -10 -18 -33 -27 -26 -4 3 -5 2 -3 -1 7 -9 -15
-65 -23 -60 -4 3 -8 -5 -9 -17 -2 -35 -12 -101 -17 -114 -2 -7 0 -13 5 -13 6
0 10 -5 10 -11 0 -5 -4 -7 -10 -4 -6 4 -7 -2 -1 -18 5 -13 6 -29 3 -34 -9 -14
-7 -167 2 -182 4 -6 3 -11 -2 -11 -5 0 -9 -7 -9 -15 0 -8 4 -15 9 -15 5 0 6
-4 3 -10 -10 -17 -14 -50 -6 -50 9 0 8 -31 -3 -48 -4 -7 -2 -12 4 -12 6 0 8
-4 5 -10 -10 -17 -14 -50 -6 -50 9 0 8 -31 -3 -48 -4 -7 -2 -12 4 -12 7 0 8
-6 2 -17 -9 -21 -8 -165 2 -182 4 -6 3 -11 -2 -11 -5 0 -9 -7 -9 -15 0 -8 4
-15 9 -15 5 0 6 -4 3 -10 -10 -17 -14 -50 -6 -50 9 0 8 -31 -3 -48 -4 -7 -2
-12 4 -12 6 0 8 -4 5 -10 -10 -17 -14 -50 -6 -50 9 0 8 -31 -3 -48 -4 -7 -2
-12 5 -12 7 0 6 -8 -5 -25 -13 -20 -14 -25 -3 -25 10 0 13 -8 9 -25 -4 -24 -5
-24 -19 -8 -13 16 -13 16 -3 -4 6 -13 14 -23 18 -23 5 0 7 -18 6 -40 -1 -22 3
-43 7 -46 5 -3 7 -10 3 -15 -3 -5 2 -21 10 -34 15 -23 13 -29 -6 -26 -5 0 -8
-4 -8 -10 0 -6 9 -8 23 -3 12 3 19 3 15 -1 -4 -4 5 -18 19 -31 14 -13 23 -24
19 -24 -11 0 17 -25 35 -32 11 -4 15 -16 13 -33 -1 -15 0 -24 3 -21 4 3 15 -1
25 -11 10 -9 18 -11 18 -6 0 6 -7 14 -16 17 -8 3 -12 11 -8 17 5 8 3 9 -6 4
-9 -6 -11 -4 -5 5 6 10 11 9 22 -5 7 -11 13 -15 13 -10 0 11 29 -27 30 -38 0
-5 -5 -5 -12 -1 -7 4 -8 3 -4 -4 5 -9 13 -9 26 -2 22 12 33 13 26 2 -2 -4 4
-8 15 -8 18 0 18 2 5 12 -9 6 -16 15 -16 19 0 4 6 2 14 -4 7 -6 30 -12 50 -13
22 -1 36 -6 36 -14 0 -19 14 -24 30 -12 13 8 13 9 -1 5 -9 -3 -16 1 -16 8 0
11 5 11 19 4 13 -7 17 -17 14 -32 -3 -12 -3 -16 0 -9 5 10 9 10 22 0 14 -10
15 -10 5 2 -7 8 -13 23 -13 34 1 19 2 19 16 -4 8 -14 13 -17 10 -8 -4 15 -1
16 20 8 31 -12 37 -12 30 -1 -4 5 3 7 14 4 11 -3 20 -9 20 -14 0 -5 -6 -6 -13
-3 -8 3 -20 -2 -27 -11 -8 -10 -9 -15 -1 -15 6 0 11 5 11 10 0 6 5 10 11 10 5
0 7 -4 4 -10 -3 -6 1 -7 9 -4 9 3 16 11 16 18 0 7 13 12 30 11 24 0 33 -7 46
-32 8 -18 16 -33 18 -33 9 0 -1 36 -11 43 -7 4 -13 13 -13 20 0 7 4 6 10 -3 6
-9 13 -11 18 -5 9 13 82 14 82 2 0 -5 8 -3 17 4 11 10 14 10 9 2 -4 -7 -3 -13
3 -13 5 0 13 5 16 10 4 7 13 7 26 0 14 -8 19 -7 19 2 0 6 7 3 15 -8 14 -18 14
-18 15 0 0 16 2 16 19 -5 16 -20 22 -22 33 -11 11 11 10 12 -3 7 -10 -4 -20
-1 -25 6 -5 9 -2 10 9 6 10 -4 17 -1 17 6 0 7 3 8 8 2 9 -12 46 -20 39 -8 -3
5 3 9 14 9 10 0 22 -8 25 -18 6 -19 24 -25 24 -8 0 6 -5 10 -11 10 -5 0 -8 4
-5 9 7 11 56 11 56 0 0 -4 -9 -6 -19 -4 -14 3 -18 -1 -14 -12 3 -8 9 -11 12
-6 8 11 61 13 61 2 0 -5 5 -9 11 -9 8 0 9 4 0 13 -6 8 -7 18 -3 23 4 4 0 3
-10 -4 -11 -9 -18 -10 -23 -2 -3 5 0 10 7 11 7 0 21 2 30 4 10 2 20 -1 24 -6
3 -5 10 -7 15 -3 5 3 7 10 4 15 -8 13 25 -1 60 -25 23 -15 27 -16 16 -3 -9 12
-10 17 -2 17 7 0 9 5 5 13 -4 6 -4 9 1 5 4 -4 17 -3 28 3 14 8 18 8 13 0 -4
-6 -3 -11 3 -11 5 0 11 3 14 8 2 4 2 2 1 -5 -2 -6 5 -17 14 -25 10 -8 13 -8 9
-1 -10 17 11 27 28 13 15 -12 35 -6 35 11 0 5 -5 9 -11 9 -5 0 -7 -5 -4 -10 3
-6 2 -10 -4 -10 -18 0 -21 18 -6 34 17 16 49 11 38 -7 -3 -6 -1 -7 6 -3 9 6 9
11 1 21 -9 10 -4 13 20 11 17 -1 34 2 37 7 3 6 1 7 -5 3 -7 -4 -12 -3 -12 2 0
13 44 52 59 52 7 0 10 4 6 9 -3 5 -1 12 5 16 5 3 17 21 26 40 9 19 21 35 26
35 5 0 7 4 3 9 -3 5 -1 12 4 16 6 3 7 13 4 22 -5 12 -3 14 8 8 11 -7 11 -5 -1
10 -13 17 -13 18 1 13 9 -4 16 -1 16 8 0 7 -3 11 -6 9 -11 -6 -7 270 4 277 6
5 6 8 0 8 -5 0 -10 16 -10 35 0 30 3 34 20 29 l20 -5 -20 13 c-22 15 -32 48
-14 48 8 0 7 5 -2 17 -10 11 -10 14 -1 9 6 -4 12 -3 12 3 0 5 -6 12 -12 15
-10 5 -10 7 0 12 10 5 10 9 0 22 -10 12 -10 14 0 8 6 -4 12 -2 12 3 0 6 -6 11
-12 11 -9 0 -8 4 2 10 8 5 11 10 5 10 -14 0 -14 383 0 392 6 5 6 8 0 8 -5 0
-10 15 -10 34 0 19 3 32 8 29 4 -2 7 1 7 6 0 6 -4 11 -8 11 -4 0 -8 9 -9 20
-1 11 3 20 8 20 6 0 7 6 2 13 -12 20 -14 47 -2 47 7 0 7 6 -2 17 -10 11 -10
14 -1 9 6 -4 12 -2 12 3 0 6 -4 11 -10 11 -5 0 -10 5 -10 11 0 5 4 8 8 5 4 -2
8 4 8 14 0 10 -3 17 -6 15 -4 -2 -7 9 -7 25 0 17 5 30 11 30 7 0 6 3 -1 8 -17
11 -44 78 -35 87 4 5 1 5 -5 1 -7 -4 -13 -3 -13 2 0 13 -102 118 -122 125 -10
4 -18 13 -18 22 0 8 -6 14 -12 12 -7 -1 -12 4 -11 11 2 6 -2 12 -9 12 -6 0 -1
12 13 27 13 14 19 23 12 20 -7 -5 -9 0 -6 13 3 11 10 17 17 13 8 -4 7 -2 -1 7
-6 7 -9 19 -6 28 4 10 2 13 -5 8 -8 -4 -12 0 -12 11 0 11 -6 25 -12 32 -11 11
-8 12 12 7 l25 -7 -23 13 c-18 11 -20 16 -10 27 10 11 10 12 1 7 -9 -5 -11 -2
-7 8 3 9 10 13 15 10 5 -3 1 9 -9 25 -17 30 -38 40 -97 47 -16 2 -37 7 -45 11
-22 9 -32 10 -62 2 -15 -4 -30 -4 -32 0 -5 8 -84 10 -370 11 -93 0 -171 -2
-174 -4 -2 -3 -13 -1 -23 4 -12 7 -20 6 -24 -1z m-280 -2121 c4 -3 2 -9 -3
-12 -5 -3 -15 1 -21 8 -10 11 -9 14 3 12 9 -1 18 -5 21 -8z m1073 -12 c-2 -1
-12 -8 -22 -16 -18 -14 -19 -14 -7 8 7 12 17 20 22 16 6 -3 9 -7 7 -8z m-118
-16 c0 -5 -5 -10 -11 -10 -5 0 -7 5 -4 10 3 6 8 10 11 10 2 0 4 -4 4 -10z"/>
<path d="M675 2091 c-3 -5 -2 -12 3 -15 5 -3 9 1 9 9 0 17 -3 19 -12 6z"/>
<path d="M1856 2058 c3 -5 10 -6 15 -3 13 9 11 12 -6 12 -8 0 -12 -4 -9 -9z"/>
<path d="M470 1341 c0 -6 4 -13 10 -16 6 -3 7 1 4 9 -7 18 -14 21 -14 7z"/>
<path d="M2073 1335 c0 -8 4 -12 9 -9 5 3 6 10 3 15 -9 13 -12 11 -12 -6z"/>
<path d="M2073 1275 c0 -8 4 -12 9 -9 5 3 6 10 3 15 -9 13 -12 11 -12 -6z"/>
<path d="M2073 1175 c0 -8 4 -12 9 -9 5 3 6 10 3 15 -9 13 -12 11 -12 -6z"/>
<path d="M470 779 c0 -5 5 -7 10 -4 6 3 10 8 10 11 0 2 -4 4 -10 4 -5 0 -10
-5 -10 -11z"/>
<path d="M2073 695 c0 -8 4 -12 9 -9 5 3 6 10 3 15 -9 13 -12 11 -12 -6z"/>
<path d="M2025 411 c-3 -5 -1 -12 5 -16 6 -4 7 -11 4 -17 -4 -7 -2 -8 5 -4 9
6 9 11 1 21 -8 10 -7 14 2 18 9 4 9 6 1 6 -6 1 -14 -3 -18 -8z"/>
<path d="M530 359 c0 -5 5 -7 10 -4 6 3 10 8 10 11 0 2 -4 4 -10 4 -5 0 -10
-5 -10 -11z"/>
<path d="M1985 350 c-3 -6 1 -7 9 -4 18 7 21 14 7 14 -6 0 -13 -4 -16 -10z"/>
<path d="M560 330 c6 -11 15 -20 20 -20 6 0 2 9 -7 20 -10 11 -19 20 -21 20
-1 0 2 -9 8 -20z"/>
<path d="M1940 304 c-10 -11 -10 -14 -1 -14 7 0 9 -5 5 -12 -4 -7 -3 -8 4 -4
6 4 9 13 5 21 -4 11 -1 13 11 9 9 -3 16 -4 16 -1 0 13 -30 14 -40 1z"/>
<path d="M1896 247 c3 -10 9 -15 12 -12 3 3 0 11 -7 18 -10 9 -11 8 -5 -6z"/>
<path d="M786 203 c-4 -11 -1 -11 14 -3 24 13 25 17 5 17 -8 0 -16 -6 -19 -14z"/>
<path d="M1725 209 c-4 -6 -4 -13 -1 -16 3 -4 6 -1 6 6 0 7 5 9 12 5 7 -4 8
-3 4 4 -9 15 -13 15 -21 1z"/>
<path d="M830 195 c0 -8 4 -15 10 -15 5 0 7 7 4 15 -4 8 -8 15 -10 15 -2 0 -4
-7 -4 -15z"/>
<path d="M1590 201 c0 -9 30 -24 36 -18 2 1 -6 8 -16 15 -11 7 -20 8 -20 3z"/>
<path d="M1636 198 c3 -5 10 -6 15 -3 13 9 11 12 -6 12 -8 0 -12 -4 -9 -9z"/>
<path d="M950 189 c0 -5 5 -7 10 -4 6 3 10 8 10 11 0 2 -4 4 -10 4 -5 0 -10
-5 -10 -11z"/>
<path d="M1046 191 c-3 -4 3 -16 13 -25 16 -15 19 -15 24 -2 4 11 1 13 -10 9
-10 -4 -14 -2 -9 5 3 6 2 13 -3 16 -5 4 -12 2 -15 -3z"/>
<path d="M1147 193 c-3 -5 -1 -17 4 -28 6 -17 7 -16 6 8 -1 28 -3 32 -10 20z"/>
<path d="M1176 193 c-3 -3 -6 -11 -6 -17 0 -6 5 -4 10 4 8 12 10 12 10 1 0 -8
3 -11 7 -8 3 4 12 -1 20 -11 12 -16 13 -16 6 2 -5 15 -3 17 8 11 8 -4 12 -6 9
-2 -3 3 -9 6 -15 7 -5 1 -17 6 -26 11 -9 4 -19 5 -23 2z"/>
<path d="M1257 193 c-13 -13 -7 -20 18 -20 14 0 28 4 32 10 3 6 1 7 -6 3 -6
-4 -18 -3 -25 3 -7 6 -16 8 -19 4z"/>
<path d="M1430 186 c0 -2 7 -7 16 -10 8 -3 12 -2 9 4 -6 10 -25 14 -25 6z"/>
<path d="M1660 186 c0 -2 7 -7 16 -10 8 -3 12 -2 9 4 -6 10 -25 14 -25 6z"/>
<path d="M1310 161 c0 -6 4 -13 10 -16 6 -3 7 1 4 9 -7 18 -14 21 -14 7z"/>
<path d="M1335 160 c3 -5 8 -10 11 -10 2 0 4 5 4 10 0 6 -5 10 -11 10 -5 0 -7
-4 -4 -10z"/>
<path d="M1426 162 c-3 -5 1 -9 9 -9 8 0 12 4 9 9 -3 4 -7 8 -9 8 -2 0 -6 -4
-9 -8z"/>
</g>
</svg>
